<svg xmlns="http://www.w3.org/2000/svg" version="1.1" xmlns:xlink="http://www.w3.org/1999/xlink" xmlns:svgjs="http://svgjs.com/svgjs" width="1920" height="668" preserveAspectRatio="none" viewBox="0 0 1920 668"><g mask="url(&quot;#SvgjsMask1091&quot;)" fill="none"><rect width="1920" height="668" x="0" y="0" fill="rgba(255, 20, 147, 0.9)"></rect><path d="M0,633.454C120.038,638.127,227.422,574.921,334.562,520.588C453.141,460.454,583.288,410.642,657.24,300.151C736.815,181.259,803.004,26.368,755.717,-108.656C708.396,-243.776,532.059,-273.605,423.581,-367.035C335.208,-443.149,287.434,-565.872,178.005,-606.228C66.014,-647.529,-55.152,-609.7,-172.296,-586.786C-300.871,-561.636,-457.242,-569.341,-537.997,-466.177C-618.882,-362.846,-547.385,-211.264,-567.723,-81.626C-588.437,50.413,-711.355,177.963,-658.294,300.633C-605.377,422.971,-437.182,435.033,-318.229,495.174C-212.879,548.437,-117.96,628.862,0,633.454" fill="rgba(179, 0, 97, 0.9)"></path><path d="M1920 1273.524C2042.44 1265.8139999999999 2160.772 1262.577 2277.136 1223.7150000000001 2424.83 1174.3899999999999 2608.173 1152.7069999999999 2685.85 1017.752 2763.3630000000003 883.08 2677.038 716.106 2658.07 561.8820000000001 2638.647 403.963 2671.202 227.341 2573.218 101.98299999999995 2474.259-24.621999999999957 2304.758-89.03099999999995 2144.199-95.54999999999995 1997.165-101.51999999999998 1879.569 11.277000000000044 1743.915 68.30899999999997 1626.339 117.74099999999999 1499.992 138.264 1399.932 217.358 1284.554 308.56 1138.266 407.502 1129.115 554.288 1119.905 702.028 1283.107 796.711 1355.775 925.673 1420.5230000000001 1040.578 1420.47 1201.3719999999998 1532.74 1270.588 1644.897 1339.734 1788.501 1281.804 1920 1273.524" fill="rgba(255, 116, 191, 0.9)"></path></g><defs><mask id="SvgjsMask1091"><rect width="1920" height="668" fill="#ffffff"></rect></mask></defs></svg>